<?xml version="1.0" encoding="UTF-8" standalone="no"?>
<svg
   width="200"
   height="200"
   viewBox="0 0 200 200"
   id="Flat"
   version="1.1"
   sodipodi:docname="instagram.svg"
   inkscape:version="1.1.1 (3bf5ae0d25, 2021-09-20)"
   xmlns:inkscape="http://www.inkscape.org/namespaces/inkscape"
   xmlns:sodipodi="http://sodipodi.sourceforge.net/DTD/sodipodi-0.dtd"
   xmlns="http://www.w3.org/2000/svg"
   xmlns:svg="http://www.w3.org/2000/svg">
  <defs
     id="defs7" />
  <sodipodi:namedview
     id="namedview5"
     pagecolor="#505050"
     bordercolor="#ffffff"
     borderopacity="1"
     inkscape:pageshadow="0"
     inkscape:pageopacity="0"
     inkscape:pagecheckerboard="1"
     showgrid="false"
     fit-margin-top="0"
     fit-margin-left="0"
     fit-margin-right="0"
     fit-margin-bottom="0"
     inkscape:zoom="2.8085938"
     inkscape:cx="99.694019"
     inkscape:cy="99.872045"
     inkscape:window-width="2560"
     inkscape:window-height="1361"
     inkscape:window-x="-9"
     inkscape:window-y="-9"
     inkscape:window-maximized="1"
     inkscape:current-layer="Flat" />
  <path
     d="m 132,100 a 32,32 0 1 1 -32,-32 32.03667,32.03667 0 0 1 32,32 z m 68,-44 v 88 a 56.06353,56.06353 0 0 1 -56,56 H 56 A 56.06353,56.06353 0 0 1 0,144 V 56 A 56.06353,56.06353 0 0 1 56,0 h 88 a 56.06353,56.06353 0 0 1 56,56 z m -52,44 a 48,48 0 1 0 -48,48 48.05436,48.05436 0 0 0 48,-48 z m 16,-52 a 12,12 0 1 0 -12,12 12,12 0 0 0 12,-12 z"
     id="path2" />
</svg>
