<svg width="192" height="79" viewBox="0 0 192 79" fill="none" xmlns="http://www.w3.org/2000/svg">
<g filter="url(#filter0_d_503_1264)">
<rect x="4" width="184" height="71" rx="35.5" fill="white"/>
<rect x="6" y="2" width="180" height="67" rx="33.5" stroke="black" stroke-width="4"/>
</g>
<path d="M37.31 43V27.6H43.316C44.6653 27.6 45.8167 27.8127 46.77 28.238C47.7233 28.6633 48.4567 29.2793 48.97 30.086C49.4833 30.8927 49.74 31.8533 49.74 32.968C49.74 34.0827 49.4833 35.0433 48.97 35.85C48.4567 36.642 47.7233 37.2507 46.77 37.676C45.8167 38.1013 44.6653 38.314 43.316 38.314H38.52L39.51 37.302V43H37.31ZM47.606 43L43.69 37.412H46.044L50.004 43H47.606ZM39.51 37.522L38.52 36.444H43.25C44.658 36.444 45.7213 36.1433 46.44 35.542C47.1733 34.926 47.54 34.068 47.54 32.968C47.54 31.868 47.1733 31.0173 46.44 30.416C45.7213 29.8147 44.658 29.514 43.25 29.514H38.52L39.51 28.414V37.522ZM58.1784 43.132C56.9317 43.132 55.8317 42.8753 54.8784 42.362C53.9397 41.8487 53.2064 41.1447 52.6784 40.25C52.165 39.3553 51.9084 38.3287 51.9084 37.17C51.9084 36.0113 52.1577 34.9847 52.6564 34.09C53.1697 33.1953 53.8664 32.4987 54.7464 32C55.641 31.4867 56.6457 31.23 57.7604 31.23C58.8897 31.23 59.887 31.4793 60.7524 31.978C61.6177 32.4767 62.2924 33.1807 62.7764 34.09C63.275 34.9847 63.5244 36.0333 63.5244 37.236C63.5244 37.324 63.517 37.4267 63.5024 37.544C63.5024 37.6613 63.495 37.7713 63.4804 37.874H53.5584V36.356H62.3804L61.5224 36.884C61.537 36.136 61.383 35.4687 61.0604 34.882C60.7377 34.2953 60.2904 33.8407 59.7184 33.518C59.161 33.1807 58.5084 33.012 57.7604 33.012C57.027 33.012 56.3744 33.1807 55.8024 33.518C55.2304 33.8407 54.783 34.3027 54.4604 34.904C54.1377 35.4907 53.9764 36.1653 53.9764 36.928V37.28C53.9764 38.0573 54.1524 38.754 54.5044 39.37C54.871 39.9713 55.377 40.4407 56.0224 40.778C56.6677 41.1153 57.4084 41.284 58.2444 41.284C58.9337 41.284 59.557 41.1667 60.1144 40.932C60.6864 40.6973 61.185 40.3453 61.6104 39.876L62.7764 41.24C62.2484 41.856 61.5884 42.3253 60.7964 42.648C60.019 42.9707 59.1464 43.132 58.1784 43.132ZM69.3002 43L64.1962 31.34H66.3962L70.9282 41.9H69.8722L74.4922 31.34H76.5602L71.4562 43H69.3002ZM83.203 43.132C82.0297 43.132 80.9884 42.8753 80.079 42.362C79.1697 41.8487 78.451 41.1447 77.923 40.25C77.395 39.3407 77.131 38.314 77.131 37.17C77.131 36.0113 77.395 34.9847 77.923 34.09C78.451 33.1953 79.1697 32.4987 80.079 32C80.9884 31.4867 82.0297 31.23 83.203 31.23C84.3617 31.23 85.3957 31.4867 86.305 32C87.229 32.4987 87.9477 33.1953 88.461 34.09C88.989 34.97 89.253 35.9967 89.253 37.17C89.253 38.3287 88.989 39.3553 88.461 40.25C87.9477 41.1447 87.229 41.8487 86.305 42.362C85.3957 42.8753 84.3617 43.132 83.203 43.132ZM83.203 41.284C83.951 41.284 84.6184 41.1153 85.205 40.778C85.8064 40.4407 86.2757 39.964 86.613 39.348C86.9504 38.7173 87.119 37.9913 87.119 37.17C87.119 36.334 86.9504 35.6153 86.613 35.014C86.2757 34.398 85.8064 33.9213 85.205 33.584C84.6184 33.2467 83.951 33.078 83.203 33.078C82.455 33.078 81.7877 33.2467 81.201 33.584C80.6144 33.9213 80.145 34.398 79.793 35.014C79.441 35.6153 79.265 36.334 79.265 37.17C79.265 37.9913 79.441 38.7173 79.793 39.348C80.145 39.964 80.6144 40.4407 81.201 40.778C81.7877 41.1153 82.455 41.284 83.203 41.284ZM92.1739 43V26.676H94.2859V43H92.1739ZM103.224 43.132C102.227 43.132 101.347 42.9487 100.584 42.582C99.8364 42.2153 99.2497 41.658 98.8244 40.91C98.4137 40.1473 98.2084 39.194 98.2084 38.05V31.34H100.32V37.808C100.32 38.952 100.592 39.81 101.134 40.382C101.692 40.954 102.469 41.24 103.466 41.24C104.2 41.24 104.838 41.0933 105.38 40.8C105.923 40.492 106.341 40.052 106.634 39.48C106.928 38.8933 107.074 38.1893 107.074 37.368V31.34H109.186V43H107.184V39.854L107.514 40.69C107.133 41.4673 106.561 42.0687 105.798 42.494C105.036 42.9193 104.178 43.132 103.224 43.132ZM117.211 43.132C116.038 43.132 115.128 42.8167 114.483 42.186C113.838 41.5553 113.515 40.6533 113.515 39.48V28.788H115.627V39.392C115.627 40.0227 115.781 40.5067 116.089 40.844C116.412 41.1813 116.866 41.35 117.453 41.35C118.113 41.35 118.663 41.1667 119.103 40.8L119.763 42.318C119.44 42.5967 119.052 42.802 118.597 42.934C118.157 43.066 117.695 43.132 117.211 43.132ZM111.535 33.078V31.34H118.971V33.078H111.535ZM127.222 43.132C126.225 43.132 125.345 42.9487 124.582 42.582C123.834 42.2153 123.248 41.658 122.822 40.91C122.412 40.1473 122.206 39.194 122.206 38.05V31.34H124.318V37.808C124.318 38.952 124.59 39.81 125.132 40.382C125.69 40.954 126.467 41.24 127.464 41.24C128.198 41.24 128.836 41.0933 129.378 40.8C129.921 40.492 130.339 40.052 130.632 39.48C130.926 38.8933 131.072 38.1893 131.072 37.368V31.34H133.184V43H131.182V39.854L131.512 40.69C131.131 41.4673 130.559 42.0687 129.796 42.494C129.034 42.9193 128.176 43.132 127.222 43.132Z" fill="black"/>
<path d="M135.693 43L143.673 32.64L143.638 34.355L136.043 24.45H139.788L145.598 32.08H144.163L149.973 24.45H153.648L145.948 34.425L145.983 32.64L154.033 43H150.218L144.093 34.88L145.458 35.09L139.438 43H135.693Z" fill="#A951FB"/>
<defs>
<filter id="filter0_d_503_1264" x="0" y="0" width="192" height="79" filterUnits="userSpaceOnUse" color-interpolation-filters="sRGB">
<feFlood flood-opacity="0" result="BackgroundImageFix"/>
<feColorMatrix in="SourceAlpha" type="matrix" values="0 0 0 0 0 0 0 0 0 0 0 0 0 0 0 0 0 0 127 0" result="hardAlpha"/>
<feOffset dy="4"/>
<feGaussianBlur stdDeviation="2"/>
<feComposite in2="hardAlpha" operator="out"/>
<feColorMatrix type="matrix" values="0 0 0 0 0 0 0 0 0 0 0 0 0 0 0 0 0 0 0.13 0"/>
<feBlend mode="normal" in2="BackgroundImageFix" result="effect1_dropShadow_503_1264"/>
<feBlend mode="normal" in="SourceGraphic" in2="effect1_dropShadow_503_1264" result="shape"/>
</filter>
</defs>
</svg>
